<svg width="27" height="27" viewBox="0 0 27 27" fill="none" xmlns="http://www.w3.org/2000/svg">
<g clip-path="url(#clip0_1_46)">
<path d="M26.9653 5.01193C25.9946 5.44326 24.9521 5.73439 23.856 5.86387C24.9735 5.19419 25.8321 4.13359 26.237 2.87011C25.1905 3.48948 24.0325 3.94143 22.7996 4.18308C21.8115 3.13155 20.4046 2.47424 18.8467 2.47424C15.857 2.47424 13.4348 4.89729 13.4348 7.88693C13.4348 8.31084 13.4818 8.72485 13.5742 9.12072C9.07528 8.89474 5.08691 6.73973 2.41644 3.46474C1.95129 4.26473 1.68408 5.19419 1.68408 6.18634C1.68408 8.06507 2.63994 9.72112 4.09146 10.6926C3.20488 10.6638 2.37025 10.4213 1.64037 10.0155C1.63955 10.0378 1.63955 10.0617 1.63955 10.0832C1.63955 12.7066 3.50508 14.8946 5.98173 15.3919C5.52813 15.5148 5.04979 15.5816 4.55578 15.5816C4.2061 15.5816 3.86796 15.5478 3.53807 15.4851C4.22589 17.6344 6.22585 19.1997 8.59365 19.2442C6.74213 20.6958 4.40816 21.5626 1.87212 21.5626C1.43501 21.5626 1.00368 21.537 0.580597 21.4867C2.9756 23.0207 5.82091 23.9171 8.87818 23.9171C18.8343 23.9171 24.28 15.6691 24.28 8.51537C24.28 8.28115 24.2734 8.04692 24.2635 7.81435C25.3216 7.05148 26.2387 6.09892 26.9653 5.01193Z" fill="#F47D31"/>
</g>
<defs>
<clipPath id="clip0_1_46">
<rect width="26.3913" height="26.3913" fill="white" transform="translate(0.57962)"/>
</clipPath>
</defs>
</svg>
