<svg width="27" height="27" viewBox="0 0 27 27" fill="none" xmlns="http://www.w3.org/2000/svg">
<path d="M14.8525 10.0824V15.1624H17.7198C18.4051 15.1624 18.8111 14.595 18.9568 13.9254L19.5238 11.3195C19.6696 10.6498 18.9721 10.0824 18.2868 10.0824H14.8525Z" fill="#F47D31"/>
<path d="M8.40311 10.0824C7.71776 10.0824 7.16602 10.6341 7.16602 11.3195V13.9254C7.16602 14.6107 7.71776 15.1624 8.40311 15.1624H10.8419V10.0824H8.40311Z" fill="#F47D31"/>
<path d="M10.2588 4.66766V24.3423C10.2588 25.0277 10.8105 25.5794 11.4959 25.5794H14.1017C14.7871 25.5794 15.3388 25.0277 15.3388 24.3423V8.40189C15.3388 6.54974 15.756 5.90475 17.5589 5.90475H18.0875C18.7729 5.90475 19.3246 5.35301 19.3246 4.66766V2.0618C19.3246 1.37645 18.7729 0.824707 18.0875 0.824707H14.1017C11.4793 0.824707 10.2588 2.42576 10.2588 4.66766Z" fill="#F47D31"/>
</svg>
